<?xml version="1.0" encoding="UTF-8"?>
<svg version="1.1" xmlns="http://www.w3.org/2000/svg" width="114" height="109">
<path d="M0 0 C37.62 0 75.24 0 114 0 C114 35.97 114 71.94 114 109 C76.38 109 38.76 109 0 109 C0 73.03 0 37.06 0 0 Z " fill="#1B66A5" transform="translate(0,0)"/>
<path d="M0 0 C37.62 0 75.24 0 114 0 C114 0.33 114 0.66 114 1 C101.13 1 88.26 1 75 1 C74.67 3.31 74.34 5.62 74 8 C69.73721772 16.7031805 59.98414494 20.72057929 51.625 24.75 C49.85465004 25.61942865 48.08513809 26.49056547 46.31640625 27.36328125 C45.42840332 27.8010791 44.54040039 28.23887695 43.62548828 28.68994141 C39.57249872 30.71229048 35.56534052 32.81800185 31.5625 34.9375 C30.80163086 35.33984863 30.04076172 35.74219727 29.25683594 36.15673828 C27.68187829 36.99024927 26.10717607 37.82424307 24.53271484 38.65869141 C19.81779372 41.15568164 15.09728689 43.64197425 10.375 46.125 C9.45533447 46.610896 8.53566895 47.09679199 7.58813477 47.59741211 C6.74178467 48.04221924 5.89543457 48.48702637 5.0234375 48.9453125 C3.89301025 49.54110107 3.89301025 49.54110107 2.73974609 50.14892578 C1 51 1 51 0 51 C0 34.17 0 17.34 0 0 Z " fill="#F4FBFD" transform="translate(0,0)"/>
<path d="M0 0 C0.60730957 0.25676514 1.21461914 0.51353027 1.84033203 0.77807617 C3.95167443 7.11210337 2.62694027 12.16540356 0.49658203 18.25073242 C-5.2033415 26.94849309 -17.10904664 31.0701616 -26.09716797 35.59057617 C-28.38804443 36.75055317 -30.6778139 37.91266509 -32.96669006 39.07658386 C-34.38314155 39.79604286 -35.80093969 40.51285794 -37.22019958 41.22676086 C-40.39869807 42.69424743 -40.39869807 42.69424743 -43.15966797 44.77807617 C-44.54126911 44.87085947 -45.92754834 44.8955466 -47.31225586 44.89160156 C-48.19309341 44.89152603 -49.07393097 44.8914505 -49.98146057 44.89137268 C-50.93874557 44.8862114 -51.89603058 44.88105011 -52.88232422 44.87573242 C-53.85753525 44.87431747 -54.83274628 44.87290253 -55.83750916 44.8714447 C-58.9657594 44.8658275 -62.0939392 44.8532721 -65.22216797 44.84057617 C-67.33740131 44.83556339 -69.45263577 44.8310001 -71.56787109 44.8269043 C-76.76516093 44.81585249 -81.96240942 44.79909763 -87.15966797 44.77807617 C-83.33813625 41.58964105 -78.99205146 39.5366429 -74.57373047 37.31323242 C-73.72846298 36.88362717 -72.8831955 36.45402191 -72.01231384 36.01139832 C-70.20607275 35.09340102 -68.39905683 34.17692693 -66.59133911 33.26184082 C-48.03775552 23.87118658 -48.03775552 23.87118658 -29.72216797 14.02807617 C-23.1987619 10.42943605 -16.66082748 6.87236256 -10.03466797 3.46557617 C-9.29289307 3.07337891 -8.55111816 2.68118164 -7.78686523 2.27709961 C-2.73634169 -0.28118184 -2.73634169 -0.28118184 0 0 Z " fill="#F8FBFC" transform="translate(97.15966796875,64.221923828125)"/>
<path d="M0 0 C2.54285509 5.08571017 2.89833371 9.94260287 1.3125 15.33984375 C-1.86475532 23.29622062 -7.35252497 26.91678524 -14.83984375 30.70703125 C-15.48385635 31.03611984 -16.12786896 31.36520844 -16.79139709 31.70426941 C-18.83651388 32.74758238 -20.88669234 33.78042589 -22.9375 34.8125 C-24.94631298 35.83162529 -26.95398718 36.85296019 -28.96133423 37.87496948 C-30.29378699 38.55303858 -31.62693526 39.22974273 -32.96078491 39.90505981 C-38.46179816 42.69825648 -43.90123423 45.60018895 -49.30784607 48.57197571 C-53.78319131 51 -53.78319131 51 -56 51 C-57.36936501 48.59087645 -58.72041993 46.17425815 -60.0625 43.75 C-60.45244141 43.06808594 -60.84238281 42.38617188 -61.24414062 41.68359375 C-61.60830078 41.01972656 -61.97246094 40.35585937 -62.34765625 39.671875 C-62.68804932 39.0644043 -63.02844238 38.45693359 -63.37915039 37.83105469 C-64.19427567 35.42702811 -64.03809698 34.31145672 -63 32 C-61.21606445 30.7265625 -61.21606445 30.7265625 -58.86328125 29.625 C-57.98696045 29.20331543 -57.11063965 28.78163086 -56.20776367 28.34716797 C-55.25232666 27.90260254 -54.29688965 27.45803711 -53.3125 27 C-51.29256158 26.02697786 -49.27437845 25.05030488 -47.2578125 24.0703125 C-46.21915039 23.56661133 -45.18048828 23.06291016 -44.11035156 22.54394531 C-39.22898707 20.12088809 -34.45768106 17.50862984 -29.6875 14.875 C-27.87373603 13.87753486 -26.05993449 12.88013804 -24.24609375 11.8828125 C-23.3732373 11.40231445 -22.50038086 10.92181641 -21.60107422 10.42675781 C-17.49749261 8.17583507 -13.37867462 5.95450699 -9.25 3.75 C-8.54061279 3.3669873 -7.83122559 2.98397461 -7.1003418 2.58935547 C-2.23271736 0 -2.23271736 0 0 0 Z " fill="#F7FBFC" transform="translate(80,27)"/>
<path d="M0 0 C17.16 0 34.32 0 52 0 C48.54670934 2.58996799 45.17367251 4.57629996 41.35546875 6.51171875 C40.70862625 6.84363724 40.06178375 7.17555573 39.39533997 7.51753235 C37.32784414 8.57771702 35.25783211 9.63286639 33.1875 10.6875 C30.49256676 12.06460797 27.79889418 13.4441646 25.10546875 14.82421875 C24.44062469 15.16387665 23.77578064 15.50353455 23.09078979 15.85348511 C19.61257967 17.63598959 16.15255107 19.44639262 12.71337891 21.30322266 C12.02488358 21.67469925 11.33638824 22.04617584 10.62702942 22.4289093 C9.31121581 23.14153823 7.99738687 23.85784726 6.68583679 24.57829285 C2.21806253 27 2.21806253 27 0 27 C0 18.09 0 9.18 0 0 Z " fill="#1F7AB6" transform="translate(0,1)"/>
<path d="M0 0 C12.87 0 25.74 0 39 0 C39 0.66 39 1.32 39 2 C22.665 2.495 22.665 2.495 6 3 C5.34 4.32 4.68 5.64 4 7 C3.01 7.33 2.02 7.66 1 8 C0.26676204 10.01508358 0.26676204 10.01508358 0 12 C0.99 11.67 1.98 11.34 3 11 C3.495 12.98 3.495 12.98 4 15 C2.68 15 1.36 15 0 15 C-2.13496094 17.2931062 -3.00215582 19.00646747 -4 22 C-7.66666667 22 -11.33333333 22 -15 22 C-17.71931095 23.45914246 -19.81434857 24.81434857 -22 27 C-24.3828125 27.4140625 -24.3828125 27.4140625 -27.125 27.625 C-28.03507812 27.69976563 -28.94515625 27.77453125 -29.8828125 27.8515625 C-30.93082031 27.92503906 -30.93082031 27.92503906 -32 28 C-29.18295287 25.7721339 -26.37126099 24.07101401 -23.15625 22.4765625 C-22.23972656 22.0125 -21.32320312 21.5484375 -20.37890625 21.0703125 C-18.46275787 20.10833841 -16.54347674 19.15257874 -14.62109375 18.203125 C-5.24033283 13.42698512 -3.50941048 10.52823144 0 0 Z " fill="#3279A6" transform="translate(75,1)"/>
<path d="M0 0 C0.66 0 1.32 0 2 0 C2 0.66 2 1.32 2 2 C2.99 1.67 3.98 1.34 5 1 C5.495 2.98 5.495 2.98 6 5 C4.68 5 3.36 5 2 5 C-0.13496094 7.2931062 -1.00215582 9.00646747 -2 12 C-5.66666667 12 -9.33333333 12 -13 12 C-15.71931095 13.45914246 -17.81434857 14.81434857 -20 17 C-22.3828125 17.4140625 -22.3828125 17.4140625 -25.125 17.625 C-26.03507812 17.69976563 -26.94515625 17.77453125 -27.8828125 17.8515625 C-28.93082031 17.92503906 -28.93082031 17.92503906 -30 18 C-26.37825669 15.00527685 -22.37853396 13.05875353 -18.1875 11 C-17.50107422 10.65710937 -16.81464844 10.31421875 -16.10742188 9.9609375 C-12.80870115 8.32562089 -9.51038952 6.77921777 -6.1015625 5.38671875 C-2.87943082 3.94609312 -1.88453251 2.87639172 0 0 Z " fill="#1D77B5" transform="translate(73,11)"/>
<path d="M0 0 C0.66 0.33 1.32 0.66 2 1 C0.23205273 2.95404698 -1.33804868 4.20121946 -3.625 5.5625 C-6.11190375 6.77912906 -6.11190375 6.77912906 -7 9 C-7.99 9 -8.98 9 -10 9 C-10.515625 9.825 -11.03125 10.65 -11.5625 11.5 C-14 14 -14 14 -16.48046875 14.33203125 C-19.00308892 14.31424126 -21.48696234 14.2158143 -24 14 C-21.70657553 11.44753606 -19.44333586 10.05114284 -16.3671875 8.5546875 C-15.03494141 7.89919922 -15.03494141 7.89919922 -13.67578125 7.23046875 C-12.28939453 6.55951172 -12.28939453 6.55951172 -10.875 5.875 C-9.03825231 4.97822001 -7.20227151 4.07986699 -5.3671875 3.1796875 C-4.55362793 2.78507324 -3.74006836 2.39045898 -2.90185547 1.98388672 C-1.04300513 1.14405083 -1.04300513 1.14405083 0 0 Z " fill="#2A5B91" transform="translate(78,95)"/>
<path d="M0 0 C0.99 0.66 1.98 1.32 3 2 C3.1875 5.125 3.1875 5.125 3 8 C1 5 1 5 1 3 C0.49549316 3.27263672 -0.00901367 3.54527344 -0.52880859 3.82617188 C-2.80858674 5.05507786 -5.0917253 6.27760374 -7.375 7.5 C-8.1690625 7.92925781 -8.963125 8.35851563 -9.78125 8.80078125 C-10.54179688 9.20683594 -11.30234375 9.61289062 -12.0859375 10.03125 C-12.7876709 10.40830078 -13.4894043 10.78535156 -14.21240234 11.17382812 C-16 12 -16 12 -18 12 C-17 9 -17 9 -15.2578125 7.97265625 C-14.55398437 7.67230469 -13.85015625 7.37195313 -13.125 7.0625 C-10.36508491 5.79284102 -9.16823803 5.22431738 -7.3125 2.75 C-6.879375 2.1725 -6.44625 1.595 -6 1 C-3.375 0.8125 -3.375 0.8125 -1 1 C-0.67 0.67 -0.34 0.34 0 0 Z " fill="#2F74A7" transform="translate(79,24)"/>
<path d="M0 0 C17.16 0 34.32 0 52 0 C47.5 3.375 47.5 3.375 44 4 C44 3.01 44 2.02 44 1 C43.06655762 1.05329468 43.06655762 1.05329468 42.11425781 1.10766602 C27.98107296 1.88434287 14.12008736 2.01527177 0 1 C0 0.67 0 0.34 0 0 Z " fill="#3178A6" transform="translate(0,1)"/>
<path d="M0 0 C0.99 0.33 1.98 0.66 3 1 C0.01406278 3.3684749 -3.03824327 5.16975902 -6.421875 6.91796875 C-7.44667969 7.44970703 -8.47148438 7.98144531 -9.52734375 8.52929688 C-10.59082031 9.07650391 -11.65429688 9.62371094 -12.75 10.1875 C-14.36841797 11.02571289 -14.36841797 11.02571289 -16.01953125 11.88085938 C-18.67802691 13.25716023 -21.33821462 14.63007541 -24 16 C-24.33 15.01 -24.66 14.02 -25 13 C-22.09399739 11.74335022 -20.20395416 11 -17 11 C-17.33 10.01 -17.66 9.02 -18 8 C-17.34 7.67 -16.68 7.34 -16 7 C-16 7.66 -16 8.32 -16 9 C-15.01 8.34 -14.02 7.68 -13 7 C-12.01 7 -11.02 7 -10 7 C-10 6.34 -10 5.68 -10 5 C-3.375 2 -3.375 2 0 2 C0 1.34 0 0.68 0 0 Z " fill="#316597" transform="translate(65,77)"/>
<path d="M0 0 C0.33 0.99 0.66 1.98 1 3 C-1.7881022 4.5066972 -4.58103958 6.00419804 -7.375 7.5 C-8.1690625 7.92925781 -8.963125 8.35851562 -9.78125 8.80078125 C-10.54179687 9.20683594 -11.30234375 9.61289063 -12.0859375 10.03125 C-12.7876709 10.40830078 -13.4894043 10.78535156 -14.21240234 11.17382812 C-16 12 -16 12 -18 12 C-18 11.01 -18 10.02 -18 9 C-15.11165997 6.89229241 -13.61537605 6 -10 6 C-9.67 5.34 -9.34 4.68 -9 4 C-7.3523962 3.28752268 -5.68236471 2.62599617 -4 2 C-2.65949948 1.34786461 -1.32338632 0.68620031 0 0 Z " fill="#21538A" transform="translate(26,97)"/>
<path d="M0 0 C0.33 0.99 0.66 1.98 1 3 C1.66 3.33 2.32 3.66 3 4 C2.67 5.32 2.34 6.64 2 8 C-1.66666667 8 -5.33333333 8 -9 8 C-9 7.01 -9 6.02 -9 5 C-6.03 3.35 -3.06 1.7 0 0 Z " fill="#205C97" transform="translate(93,87)"/>
<path d="M0 0 C0.77261673 0.00141495 1.54523346 0.0028299 2.34126282 0.00428772 C4.80697514 0.00988159 7.2725964 0.02243292 9.73828125 0.03515625 C11.41080598 0.04017204 13.08333213 0.04473481 14.75585938 0.04882812 C18.85420171 0.05984901 22.95247604 0.07710941 27.05078125 0.09765625 C27.05078125 0.42765625 27.05078125 0.75765625 27.05078125 1.09765625 C10.71578125 1.59265625 10.71578125 1.59265625 -5.94921875 2.09765625 C-6.60921875 3.41765625 -7.26921875 4.73765625 -7.94921875 6.09765625 C-8.93921875 6.09765625 -9.92921875 6.09765625 -10.94921875 6.09765625 C-10.94921875 4.44765625 -10.94921875 2.79765625 -10.94921875 1.09765625 C-7.25381473 -0.13414509 -3.84618497 -0.02646487 0 0 Z " fill="#247BB6" transform="translate(86.94921875,1.90234375)"/>
<path d="M0 0 C0 0.66 0 1.32 0 2 C-1.6796875 3.21875 -1.6796875 3.21875 -3.875 4.5 C-6.25362486 5.89818809 -8.03792084 7.03792084 -10 9 C-12.3828125 9.4140625 -12.3828125 9.4140625 -15.125 9.625 C-16.03507812 9.69976562 -16.94515625 9.77453125 -17.8828125 9.8515625 C-18.93082031 9.92503906 -18.93082031 9.92503906 -20 10 C-16.57544124 7.20356382 -12.81870229 5.25995711 -8.875 3.3125 C-8.24207031 2.99216797 -7.60914063 2.67183594 -6.95703125 2.34179688 C-2.25346482 0 -2.25346482 0 0 0 Z " fill="#3378AA" transform="translate(63,19)"/>
<path d="M0 0 C0.99 0 1.98 0 3 0 C2.75101118 3.10632548 2.47205823 6.20924688 2.1875 9.3125 C2.11724609 10.19357422 2.04699219 11.07464844 1.97460938 11.98242188 C1.89404297 12.82998047 1.81347656 13.67753906 1.73046875 14.55078125 C1.66239014 15.33106689 1.59431152 16.11135254 1.52416992 16.9152832 C0.9002341 19.39678671 -0.06655277 20.37554081 -2 22 C-2.99 21.67 -3.98 21.34 -5 21 C-3.48632812 18.4609375 -3.48632812 18.4609375 -1.97265625 15.921875 C-0.085956 12.19393716 0.11701215 8.8929231 0.0625 4.75 C0.05347656 3.85796875 0.04445313 2.9659375 0.03515625 2.046875 C0.02355469 1.37140625 0.01195313 0.6959375 0 0 Z " fill="#2C6295" transform="translate(99,65)"/>
<path d="M0 0 C-0.66 2.31 -1.32 4.62 -2 7 C-8.625 7.25 -8.625 7.25 -12 5 C-10.37750059 4.16180842 -8.75191503 3.3295884 -7.125 2.5 C-6.22007813 2.0359375 -5.31515625 1.571875 -4.3828125 1.09375 C-2 0 -2 0 0 0 Z " fill="#2B71A9" transform="translate(36,33)"/>
<path d="M0 0 C1.32 0.66 2.64 1.32 4 2 C1.2118978 3.5066972 -1.58103958 5.00419804 -4.375 6.5 C-5.1690625 6.92925781 -5.963125 7.35851562 -6.78125 7.80078125 C-7.54179687 8.20683594 -8.30234375 8.61289062 -9.0859375 9.03125 C-9.7876709 9.40830078 -10.4894043 9.78535156 -11.21240234 10.17382812 C-13 11 -13 11 -15 11 C-15 10.34 -15 9.68 -15 9 C-14.01 9 -13.02 9 -12 9 C-12 8.34 -12 7.68 -12 7 C-10.68 7 -9.36 7 -8 7 C-8 6.34 -8 5.68 -8 5 C-5 3 -5 3 -1 3 C-0.67 2.01 -0.34 1.02 0 0 Z " fill="#337BA9" transform="translate(32,8)"/>
<path d="M0 0 C0 0.99 0 1.98 0 3 C-2.31 3.66 -4.62 4.32 -7 5 C-7 6.32 -7 7.64 -7 9 C-6.34 9.33 -5.68 9.66 -5 10 C-8.3 9.34 -11.6 8.68 -15 8 C-12.11407259 5.83555444 -9.49272236 4.04862299 -6.375 2.3125 C-5.59898438 1.87550781 -4.82296875 1.43851562 -4.0234375 0.98828125 C-2 0 -2 0 0 0 Z " fill="#346998" transform="translate(45,68)"/>
<path d="M0 0 C3.465 1.485 3.465 1.485 7 3 C6.67 3.99 6.34 4.98 6 6 C2.4375 7.6875 2.4375 7.6875 -1 9 C-1.125 2.25 -1.125 2.25 0 0 Z " fill="#1D5895" transform="translate(33,88)"/>
<path d="M0 0 C0.33 0 0.66 0 1 0 C2.03421742 3.12529936 2.46051403 5.72363455 2 9 C-0.58939282 12.77445768 -3.66108688 15.88237937 -7 19 C-7.99 18.67 -8.98 18.34 -10 18 C-9.2575 17.525625 -8.515 17.05125 -7.75 16.5625 C-3.12029143 12.24845337 -0.80811395 6.26288314 0 0 Z " fill="#38719F" transform="translate(82,35)"/>
<path d="M0 0 C0.33 0 0.66 0 1 0 C1.125 7.75 1.125 7.75 0 10 C-0.66 10 -1.32 10 -2 10 C-2.2475 10.598125 -2.495 11.19625 -2.75 11.8125 C-4.19482573 14.34094503 -5.48280545 15.55070617 -8 17 C-8.99 16.67 -9.98 16.34 -11 16 C-9.63875 15.2265625 -9.63875 15.2265625 -8.25 14.4375 C-3.71322117 11.41298078 -1.59772946 7.34110706 -0.25 2.0625 C-0.1675 1.381875 -0.085 0.70125 0 0 Z " fill="#4283AF" transform="translate(75,1)"/>
<path d="M0 0 C0.33 0.99 0.66 1.98 1 3 C-5.75 7 -5.75 7 -8 7 C-7.6875 5.0625 -7.6875 5.0625 -7 3 C-6.01 2.67 -5.02 2.34 -4 2 C-2.65909241 1.34870203 -1.32407669 0.68486725 0 0 Z " fill="#275A91" transform="translate(26,97)"/>
<path d="M0 0 C0 0.99 0 1.98 0 3 C-7.42857143 7.42857143 -7.42857143 7.42857143 -11 8 C-11 7.34 -11 6.68 -11 6 C-7.37 4.02 -3.74 2.04 0 0 Z " fill="#3675A6" transform="translate(22,39)"/>
<path d="M0 0 C0.99 0.66 1.98 1.32 3 2 C3.1875 5.125 3.1875 5.125 3 8 C1 5 1 5 1 3 C-0.98 3.33 -2.96 3.66 -5 4 C-5.33 3.01 -5.66 2.02 -6 1 C-4.7934375 1.0309375 -4.7934375 1.0309375 -3.5625 1.0625 C-1.06645115 1.29633621 -1.06645115 1.29633621 0 0 Z " fill="#2576AE" transform="translate(79,24)"/>
<path d="M0 0 C4.62 0 9.24 0 14 0 C9.5 3.375 9.5 3.375 6 4 C6 3.01 6 2.02 6 1 C4.02 1 2.04 1 0 1 C0 0.67 0 0.34 0 0 Z " fill="#3A7DAA" transform="translate(38,1)"/>
<path d="M0 0 C-2.52956528 3.0916909 -5.22454612 3.90931332 -9 5 C-9 4.34 -9 3.68 -9 3 C-8.34 3 -7.68 3 -7 3 C-7 2.01 -7 1.02 -7 0 C-4.3333581 -1.33332095 -2.83319697 -0.67102033 0 0 Z " fill="#367CAD" transform="translate(17,19)"/>
<path d="M0 0 C-0.125 1.875 -0.125 1.875 -1 4 C-4.78661425 5.76708665 -7.04865524 6.1914033 -11 5 C-9.54462432 4.16151196 -8.08559627 3.32936066 -6.625 2.5 C-5.81289063 2.0359375 -5.00078125 1.571875 -4.1640625 1.09375 C-2 0 -2 0 0 0 Z " fill="#356D9B" transform="translate(68,56)"/>
<path d="M0 0 C2.97 0.495 2.97 0.495 6 1 C2.8745041 3.64465038 -0.08788267 4.84414715 -4 6 C-4 5.34 -4 4.68 -4 4 C-3.01 4 -2.02 4 -1 4 C-0.67 2.68 -0.34 1.36 0 0 Z " fill="#316FA1" transform="translate(29,49)"/>
<path d="M0 0 C-0.66 1.32 -1.32 2.64 -2 4 C-4.31 4 -6.62 4 -9 4 C-9.33 3.34 -9.66 2.68 -10 2 C-6.5980513 -0.09350689 -3.94727588 -0.17942163 0 0 Z " fill="#1C73B2" transform="translate(55,27)"/>
<path d="M0 0 C-1 3 -1 3 -4.25 4.625 C-7.22180677 5.71466248 -9.88632112 6.52823047 -13 7 C-4.25 0 -4.25 0 0 0 Z " fill="#DCF4FB" transform="translate(46,45)"/>
<path d="M0 0 C0.99 0.33 1.98 0.66 3 1 C1.37660195 2.70884005 -0.29319053 4.37446717 -2 6 C-2.66 6 -3.32 6 -4 6 C-4.33 6.66 -4.66 7.32 -5 8 C-5.33 6.68 -5.66 5.36 -6 4 C-5.195625 3.525625 -4.39125 3.05125 -3.5625 2.5625 C-1.15246512 1.23099846 -1.15246512 1.23099846 0 0 Z " fill="#1A5596" transform="translate(80,95)"/>
<path d="M0 0 C0.33 0.66 0.66 1.32 1 2 C-1 5 -1 5 -2.9375 5.8125 C-5 6 -5 6 -8 4 C-5.36 2.68 -2.72 1.36 0 0 Z " fill="#336B9D" transform="translate(55,62)"/>
<path d="M0 0 C0.33 0.99 0.66 1.98 1 3 C-2.13498292 4.85776765 -4.37471432 5.20140476 -8 5 C-5.44008376 2.98863724 -2.95409701 1.37154504 0 0 Z " fill="#3472A6" transform="translate(9,46)"/>
<path d="M0 0 C0.94875 0.04125 1.8975 0.0825 2.875 0.125 C2.875 1.115 2.875 2.105 2.875 3.125 C3.535 3.455 4.195 3.785 4.875 4.125 C1.575 3.465 -1.725 2.805 -5.125 2.125 C-3.125 0.125 -3.125 0.125 0 0 Z " fill="#256098" transform="translate(35.125,73.875)"/>
<path d="M0 0 C1.98 0.66 3.96 1.32 6 2 C3.61426621 3.89213369 1.92824652 5.02391783 -1 6 C-1 5.34 -1 4.68 -1 4 C-0.34 4 0.32 4 1 4 C1 3.34 1 2.68 1 2 C0.34 1.67 -0.32 1.34 -1 1 C-0.67 0.67 -0.34 0.34 0 0 Z " fill="#3776A7" transform="translate(52,36)"/>
<path d="M0 0 C-1.28913487 0.67154933 -2.58140204 1.33708859 -3.875 2 C-4.59429687 2.37125 -5.31359375 2.7425 -6.0546875 3.125 C-8 4 -8 4 -10 4 C-9.67 3.01 -9.34 2.02 -9 1 C-3.79245283 -1.26415094 -3.79245283 -1.26415094 0 0 Z " fill="#DBF1F9" transform="translate(59,21)"/>
<path d="M0 0 C1.125 1.75 1.125 1.75 2 4 C1.125 6.25 1.125 6.25 0 8 C-0.66 7.67 -1.32 7.34 -2 7 C-1.34 4.69 -0.68 2.38 0 0 Z " fill="#195C9B" transform="translate(101,77)"/>
<path d="M0 0 C0.33 0 0.66 0 1 0 C1.33 2.97 1.66 5.94 2 9 C1.01 9.66 0.02 10.32 -1 11 C-0.67 7.37 -0.34 3.74 0 0 Z " fill="#2B6DA1" transform="translate(82,35)"/>
<path d="M0 0 C-0.66 1.32 -1.32 2.64 -2 4 C-3.98 4 -5.96 4 -8 4 C-2.7826087 0 -2.7826087 0 0 0 Z " fill="#DBF2F9" transform="translate(25,16)"/>
</svg>
